<?xml version="1.0" encoding="UTF-8"?>
<svg width="1875" height="1875" xmlns="http://www.w3.org/2000/svg">
  <defs>
    <linearGradient id="a" x1="1264" x2="579.44" y1="1200" y2="1196.8" gradientUnits="userSpaceOnUse">
      <stop stop-color="#00050c" offset="0"/>
      <stop stop-color="#0036b4" offset="1"/>
    </linearGradient>
    <linearGradient id="b" x1="385.27" x2="1448.1" y1="1294.4" y2="1307.7" gradientUnits="userSpaceOnUse">
      <stop stop-color="#0036b4" offset="0"/>
      <stop stop-color="#00050c" offset="1"/>
    </linearGradient>
  </defs>
  <path d="m267.88 1061.2 1302.1 2.8917-397.58-425.71-3.4241-315.53-483.09 2.4961-10.979 309.07z" fill="#084db2"/>
  <path d="m1570 1064.1-17.879 54.114-1254.6-6.1423-29.627-50.863" fill="#001a57"/>
  <path d="M685 1123c56 92 165.45 116.56 228 116 149.77.6491 244-114 236-114l114 66c-11.555 60.315-150 192-350 192-216 0-328-160-344-192z" fill="#084db2"/>
  <path d="m1263 1191-6.099 54.236c-85.548 136.01-277.9 177.09-375.9 169.76-82.587-6.1699-245.22-75.285-294.76-171.72l-15.888-54.361c85.228 121.44 200.52 164.02 310.65 178.08 131.97 16.846 335.09-73.23 382-176z" fill="url(#a)"/>
  <path d="m385 1295 116-68c204 300 676 260 832 0l116 72c-175.43 286.76-629.49 365.64-921.16 148.27-54.151-40.356-102.7-90.924-142.84-152.27z" fill="#084db2"/>
  <path d="M385 1295c242.62 357.1 790.72 369.4 1064 4-14.943 117.89-244.34 324.9-572 308-221.38-15.217-402.35-104.54-492-312z" fill="url(#b)"/>
</svg>
